<?xml version="1.0" encoding="utf-8"?>
<!-- Generator: Adobe Illustrator 27.5.0, SVG Export Plug-In . SVG Version: 6.00 Build 0)  -->
<svg version="1.1" xmlns="http://www.w3.org/2000/svg" xmlns:xlink="http://www.w3.org/1999/xlink" x="0px" y="0px"
	 viewBox="0 0 500 500" style="enable-background:new 0 0 500 500;" xml:space="preserve">
<g id="Background">
	<rect style="fill:#FFFFFF;" width="500" height="500"/>
</g>
<g id="OBJECTS">
	<g>
		<path style="opacity:0.3;fill:#5AD0FF;" d="M63.524,100.282c-26.921,35.331-39.139,80.369-40.044,124.716
			c-0.769,37.63,1.937,94.325,23.489,126.704c27.269,40.95,79.441,38.73,119.041,58.52c145.642,72.778,193.779,68.805,236.727,8.854
			c33.937-47.371,54.69-98.125,68.435-157.021c6.249-26.771,14.615-105.485-15.446-152.69
			c-14.098-22.14-41.648-33.843-67.912-34.231c-23.505-0.35-46.328,8.74-69.828,9.35c-43.456,1.114-81.081-27.153-121.491-38.685
			C145.015,31.114,95.07,58.889,63.524,100.282z"/>
		<g>
			<g>
				<path style="opacity:0.3;fill:#5AD0FF;" d="M344.469,439.894c-38.257,25.025-86.233,26.255-129.38,7.638
					c-43.144-18.62-89.574-45.59-110.47-88.923c-24.133-50.043-32.959-117.064-9.009-197.733
					c16.397-55.232,93.215-63.01,150.6-58.562c27.344,2.117,53.767,12.795,81.02,16.405c30.127,3.988,62.677-0.164,88.925,16.437
					c17.645,11.161,29.629,30.538,35.235,50.954c5.603,20.416,5.368,41.873,2.905,62.615
					C445.774,320.599,404.245,400.789,344.469,439.894z"/>
				<g>
					<g>
						<path style="fill:#FFFFFF;" d="M321.517,247.591c0,5.394-2.866,7.74-7.962,7.74h-211.2c-5.094,0-9.979-2.347-9.979-7.74
							V103.542c0-5.395,4.886-9.606,9.979-9.606h211.2c5.096,0,7.962,4.212,7.962,9.606V247.591z"/>
						<g>
							<g style="opacity:0.5;">
								<rect x="101.342" y="124.819" style="fill:#D4E7E1;" width="36.862" height="35.866"/>
								<rect x="145.177" y="124.819" style="fill:#D4E7E1;" width="36.862" height="35.866"/>
								<rect x="231.852" y="124.819" style="fill:#D4E7E1;" width="36.862" height="35.866"/>
								<rect x="275.689" y="124.819" style="fill:#D4E7E1;" width="36.861" height="35.866"/>
							</g>
							<g style="opacity:0.5;">
								<rect x="101.342" y="166.663" style="fill:#D4E7E1;" width="36.862" height="35.865"/>
								<rect x="188.017" y="166.663" style="fill:#D4E7E1;" width="36.862" height="35.865"/>
								<rect x="144.181" y="166.663" style="fill:#D4E7E1;" width="36.862" height="35.865"/>
								<rect x="231.852" y="166.663" style="fill:#D4E7E1;" width="36.862" height="35.865"/>
								<rect x="275.689" y="166.663" style="fill:#D4E7E1;" width="36.861" height="35.865"/>
							</g>
							<g style="opacity:0.5;">
								<rect x="101.342" y="209.502" style="fill:#D4E7E1;" width="36.862" height="35.866"/>
								<rect x="189.013" y="209.502" style="fill:#D4E7E1;" width="36.861" height="35.866"/>
								<rect x="145.177" y="209.502" style="fill:#D4E7E1;" width="36.862" height="35.866"/>
								<rect x="231.852" y="209.502" style="fill:#D4E7E1;" width="36.862" height="35.866"/>
								<rect x="275.689" y="209.502" style="fill:#D4E7E1;" width="36.861" height="35.866"/>
							</g>
						</g>
						<g>
							<path style="fill:#5AD0FF;" d="M321.517,114.856v-10.242c0-8.551-6.833-14.664-15.385-14.664H107.965
								c-8.549,0-15.59,6.113-15.59,14.664v10.242H321.517z"/>
							<g>
								<path style="fill:#FFFFFF;" d="M111.76,102.115c0,2.385-1.933,4.317-4.317,4.317c-2.384,0-4.317-1.933-4.317-4.317
									c0-2.384,1.933-4.316,4.317-4.316C109.827,97.799,111.76,99.731,111.76,102.115z"/>
								<path style="fill:#FFFFFF;" d="M311.013,102.115c0,2.385-1.932,4.317-4.316,4.317s-4.317-1.933-4.317-4.317
									c0-2.384,1.933-4.316,4.317-4.316S311.013,99.731,311.013,102.115z"/>
							</g>
							<g>
								<polyline style="fill:none;stroke:#FFFFFF;stroke-miterlimit:10;" points="219.367,96.217 227.988,102.115 219.367,108.015 
																	"/>
								<polyline style="fill:none;stroke:#FFFFFF;stroke-miterlimit:10;" points="194.772,96.217 186.15,102.115 194.772,108.015 
																	"/>
							</g>
						</g>
					</g>
					<g>
						<path style="fill:#FFCF00;" d="M225.002,143.176c0,9.904-8.03,17.933-17.933,17.933c-9.904,0-17.933-8.028-17.933-17.933
							s8.028-17.933,17.933-17.933C216.973,125.243,225.002,133.271,225.002,143.176z"/>
						<path style="fill:#FFCF00;" d="M220.031,143.37c0,7.045-5.712,12.757-12.757,12.757c-7.045,0-12.758-5.712-12.758-12.757
							c0-7.046,5.712-12.758,12.758-12.758C214.319,130.612,220.031,136.324,220.031,143.37z"/>
						<path style="fill:#0063D1;" d="M216.425,143.18c0,4.949-4.013,8.963-8.962,8.963s-8.962-4.014-8.962-8.963
							s4.013-8.962,8.962-8.962S216.425,138.23,216.425,143.18z"/>
					</g>
				</g>
				<g>
					<path style="fill:#FF8080;" d="M239.504,244.865l-23.776-59.273h-0.01c0,0-0.003,0.133-0.004,0.122l0.013,0.106
						c0,0,2.321-8.186,5.073-18.759c0.828-3.184,1.533-4.92,0.499-5.391c-1.032-0.472-3.692,0.791-5.562,4.129
						c-0.757,1.352-1.421,2.479-2.003,3.417c-0.164-2.005-0.629-5.135-1.673-10.037c-1.233-5.785-2.693-14.428-4.872-15.736
						c-1.98-1.189-2.503,2.864-2.134,4.455c0.27,1.157,0.993,7.907,1.368,11.498c-1.065-2.212-3.529-1.32-4.171-0.649
						c-0.216,0.227-0.206,1.198-0.093,2.282c-0.015-0.043-0.03-0.095-0.046-0.136c-0.97-2.628-3.676-0.826-3.775-0.281
						c-0.056,0.303-0.068,1.233-0.008,2.27c-0.958-1.271-2.165-0.167-2.249,0.294c-0.1,0.544-0.416,3.638-0.049,5.229
						c0.426,1.843,0.957,4.162,1.292,5.624c0.079,0.418,0.18,0.867,0.308,1.345c0.009,0.043,0.016,0.072,0.016,0.072l0.003-0.002
						c0.399,1.47,1.05,3.174,2.125,4.97c2.154,3.594,3.581,6.826,4.249,8.462c1.037,5.162,4.029,20.227,6.309,33.302
						c5.432,31.148,7.195,39.6,16.129,46.602c5.302,4.154,51.794,14.336,51.794,14.336l6.808-25.425L239.504,244.865z"/>
					<g>
						<path style="fill:#0063D1;" d="M384.582,404.627c-11.988,13.841-25.407,25.652-40.113,35.267
							c-18.391,12.033-39.771,18.486-61.798,20.021c0.613-10.477,4.036-35.501,4.813-42.385c4.394-38.912,3.148-38.912,3.148-38.912
							l80.502,5.096C371.135,383.714,379.818,397.087,384.582,404.627z"/>
						<path style="opacity:0.8;fill:#2B2A8E;" d="M371.135,383.714l-31.437-2.355c0.65,2.586,1.708,9.342,1.708,12.05
							c0,23.088-21.384,52.458-56.669,46.271c-0.766,7.194-1.691,13.839-2.066,20.235c22.027-1.535,43.407-7.988,61.798-20.021
							c14.706-9.614,28.125-21.426,40.113-35.267C379.818,397.087,371.135,383.714,371.135,383.714z"/>
					</g>
					<g>
						<g>
							<path style="fill:#FF8080;" d="M332.207,226.511c0,0-6.183,25.869-6.594,28.472c-0.982,6.246,26.647,8.088,26.647,8.088
								l10.442-55.671l-11.081-14.095L332.207,226.511z"/>
							<g>
								<path style="fill:#FF8080;" d="M358.085,219.005c-4.802,14.933-18.147,18.084-30.445,14.409
									c-15.228-4.553-17.448-12.317-13.228-27.368c0.998-3.563,2.2-8.225,3.987-11.3c5.79-9.964,15.14-15.411,25.396-13.449
									C366.598,185.662,362.889,204.073,358.085,219.005z"/>
								<polygon style="fill:#FF8080;" points="306.931,201.198 315.57,211.302 319.906,194.498 								"/>
							</g>
							<polygon style="opacity:0.7;fill:#FD4E4C;" points="328.652,241.544 334.415,234.799 330.399,234.113 							"/>
						</g>
						<g>
							<path style="fill:#0063D1;" d="M392.157,221.122c-3.446,21.886-19.185,34.277-35.779,31.665
								c-16.594-2.614-26.688-23.688-19.881-44.14c6.997-21.02-15.194-20.297-6.124-29.919c12.319-13.064,38.098-5.251,48.01,3.919
								C395.693,198.661,394.095,208.823,392.157,221.122z"/>
							<path style="opacity:0.8;fill:#2B2A8E;" d="M383.188,187.468c0.23,3.323,0.107,6.694-0.426,10.082
								c-3.337,21.196-21.307,37.032-44.194,41.663c3.865,7.21,10.142,12.366,17.81,13.574c16.595,2.612,32.333-9.779,35.779-31.665
								C393.892,210.105,395.347,200.799,383.188,187.468z"/>
						</g>
						<g>
							<path style="fill:#2B2A8E;" d="M327.65,199.304c-0.219,1.389-1.406,2.355-2.652,2.158c-1.248-0.196-2.081-1.48-1.863-2.869
								c0.219-1.389,1.408-2.357,2.654-2.159C327.036,196.629,327.87,197.915,327.65,199.304z"/>
							<path style="fill:#FD4E4C;" d="M329.422,209.824c-0.334,2.12-2.323,3.568-4.444,3.234c-2.119-0.334-3.566-2.323-3.233-4.443
								c0.334-2.12,2.322-3.567,4.442-3.234C328.307,205.715,329.756,207.704,329.422,209.824z"/>
							<path style="fill:#2B2A8E;" d="M329.743,194.017c-0.211-0.626-1.512-0.836-2.062-1.025c-0.5-0.172-1.002-0.347-1.521-0.447
								c-0.213-0.041-0.504,0.031-0.603,0.029c-0.11-0.002-0.163,0.164-0.06,0.212c0.078,0.035,0.183,0.218,0.326,0.301
								c0.425,0.248,0.891,0.425,1.348,0.604c0.605,0.239,1.769,0.983,2.414,0.705C329.718,194.339,329.787,194.148,329.743,194.017
								z"/>
							<path style="fill:#2B2A8E;" d="M319.791,213.692c-0.75-0.395-1.968-0.084-2.805-0.2c-1.396-0.199-2.222-1.22-3.441-1.737
								c-0.27-0.113-0.478,0.201-0.332,0.427c0.696,1.09,1.938,1.982,3.215,2.249c0.947,0.198,2.578,0.502,3.445-0.048
								C320.153,214.204,320.038,213.823,319.791,213.692z"/>
						</g>
					</g>
					<g>
						<path style="fill:#FF8080;" d="M371.101,311.034l43.948,31.677c0,0-31.837,23.017-39.802,28.76
							c-7.962,5.745-7.603,6.891-5.596,12.243c2.009,5.354,12.464,17.882,12.464,17.882s2.467,1.435,2.467-4.004
							c0-5.839-9.095-16.533-3.823-18.707c1.32-0.544,38.205-15.741,55.186-26.169c6.146-3.771,8.076-5.703,8.076-9.767
							c0-3.905-3.634-7.174-8.607-12.307c-5.131-5.294-12.768-13.601-22.782-24.195c-7.848-8.303-23.18-25.403-23.18-25.403
							L371.101,311.034z"/>
						<polygon style="opacity:0.6;fill:#FD4E4C;" points="391.453,325.704 404.903,298.106 378.132,316.103 						"/>
					</g>
					<g>
						<path style="fill:#5AD0FF;" d="M407.26,295.316c0,0-14.443-18.676-29.026-27.69c-9.056-6.726-31.204-12.375-36.227-13.002
							c-6.267-0.784-15.069-2.872-30.969-4.034c-20.934-1.53-53.503-5.573-53.503-5.573l-8.06,44.228l35.591,5.442l-3.379,85.841
							l94.882,6.637c0,0-3.854-40.722-3.456-63.862c3.036,3.746,5.164,6.338,5.164,6.338L407.26,295.316z"/>
						<path style="opacity:0.2;fill:#356AE1;" d="M378.233,267.626c-1.573-1.167-3.544-2.301-5.747-3.383
							c-8.764,34.463-31.072,63.227-51.387,75.143c-11.25,6.599-35.517,3.681-37.761,4.356l-1.651,36.786l94.882,6.637
							c0,0-3.854-40.722-3.456-63.862c3.036,3.746,5.164,6.338,5.164,6.338l28.983-34.324
							C407.26,295.316,392.816,276.641,378.233,267.626z"/>
					</g>
				</g>
			</g>
			<path style="fill:#0063D1;" d="M367.338,102.115c-15.296,0-27.739,12.444-27.739,27.74c0,5.655,1.704,10.919,4.622,15.309v0.042
				h0.027c4.977,7.461,13.467,12.388,23.09,12.388c15.295,0,27.74-12.443,27.74-27.739S382.633,102.115,367.338,102.115z
				 M379.75,129.855h-11.542v-9.594h10.847C379.724,123.424,379.948,126.653,379.75,129.855z M368.208,118.341v-13.624
				c1.202,0.042,2.383,0.168,3.535,0.373c3.299,4.007,5.571,8.53,6.847,13.251H368.208z M365.329,118.341h-9.332
				c1.273-4.713,3.541-9.229,6.83-13.232c0.821-0.149,1.654-0.258,2.502-0.325V118.341z M365.329,120.261v9.594h-10.492
				c-0.199-3.201,0.026-6.431,0.694-9.594H365.329z M352.254,129.855h-10.075c0-3.396,0.681-6.636,1.906-9.594h8.817
				C352.28,123.429,352.069,126.653,352.254,129.855z M352.52,132.733c0.44,3.283,1.313,6.509,2.594,9.595h-9.612
				c-1.657-2.89-2.759-6.136-3.153-9.595H352.52z M355.13,132.733h10.199v9.595h-7.412
				C356.533,139.262,355.602,136.028,355.13,132.733z M365.329,145.207v7.746c-2.379-2.344-4.371-4.952-5.952-7.746H365.329z
				 M368.208,153.948v-8.741h7.002C373.4,148.402,371.058,151.358,368.208,153.948z M368.208,142.328v-9.595h11.249
				c-0.474,3.295-1.402,6.528-2.787,9.595H368.208z M382.066,132.733h10.261c-0.395,3.459-1.496,6.705-3.152,9.595h-9.703
				C380.753,139.242,381.628,136.017,382.066,132.733z M382.331,129.855c0.186-3.201-0.025-6.426-0.646-9.594h8.906
				c1.226,2.958,1.906,6.198,1.906,9.594H382.331z M389.696,118.341h-8.438c-1.067-4.266-2.886-8.396-5.479-12.184
				C381.813,108.313,386.784,112.71,389.696,118.341z M358.78,106.196c-2.578,3.777-4.387,7.894-5.451,12.145h-8.35
				C347.874,112.746,352.799,108.367,358.78,106.196z M347.425,145.207h9.023c1.782,3.445,4.119,6.658,6.993,9.505
				C356.948,153.697,351.276,150.19,347.425,145.207z M371.129,154.73c2.881-2.852,5.226-6.07,7.01-9.523h9.112
				C383.378,150.218,377.665,153.738,371.129,154.73z"/>
			<g>
				<g>
					<path style="fill:#5AD0FF;" d="M181.043,232.741c0,7.523-6.1,13.623-13.624,13.623H64.156c-7.524,0-13.624-6.1-13.624-13.623
						v-24.561c0-7.523,6.1-13.623,13.624-13.623h103.263c7.524,0,13.624,6.1,13.624,13.623V232.741z"/>
					<path style="fill:#5AD0FF;" d="M149.162,245.017c0,0,17.576-1.185,22.429,6.704c5.02,8.163,7.249,9.869,7.792,7.263
						c1.66-7.97,1.575-32.49,1.575-32.49L149.162,245.017z"/>
				</g>
				<g style="opacity:0.2;">
					<rect x="58.502" y="206.514" style="fill:#356AE1;" width="113.574" height="3.985"/>
					<rect x="58.502" y="219.465" style="fill:#356AE1;" width="113.574" height="3.985"/>
					<rect x="58.502" y="232.417" style="fill:#356AE1;" width="113.574" height="3.984"/>
				</g>
			</g>
			<g>
				<g>
					<path style="fill:#0063D1;" d="M134.218,396.712c0,0-31.68-2.533-40.847-2.533c-11.407,0-40.846,2.533-40.846,2.533V284.271
						c0,0,30.254-2.262,40.846-2.262c9.981,0,40.847,2.262,40.847,2.262V396.712z"/>
					<path style="fill:#FFFFFF;" d="M134.218,396.712c0,0,32.179-2.533,41.345-2.533c11.407,0,41.345,2.533,41.345,2.533V284.271
						c0,0-30.752-2.262-41.345-2.262c-9.982,0-41.345,2.262-41.345,2.262V396.712z"/>
					<path style="opacity:0.8;fill:#2B2A8E;" d="M134,284.605v112.438c0,0-31.335-2.53-40.5-2.53c-11.407,0-40.5,2.53-40.5,2.53
						v-15.921c35-0.935,63.024-36.971,63.024-81.284c0-5.669-0.686-11.209-1.572-16.549C124.654,283.907,134,284.605,134,284.605z"
						/>
					<polygon style="fill:#5AD0FF;" points="127.245,282.959 127.245,406.124 131.701,402.794 135.214,406.124 135.214,282.959 
											"/>
				</g>
				<g>
					<g>
						<g>
							<rect x="144.181" y="313.461" style="fill:#D4E7E1;" width="33.347" height="2.817"/>
							<rect x="144.181" y="320.036" style="fill:#D4E7E1;" width="33.347" height="2.818"/>
							<rect x="144.181" y="326.61" style="fill:#D4E7E1;" width="33.347" height="2.819"/>
						</g>
						<rect x="189.269" y="313.461" style="opacity:0.3;fill:#5AD0FF;" width="20.665" height="15.969"/>
					</g>
					<g>
						<g>
							<rect x="144.181" y="338.822" style="fill:#D4E7E1;" width="32.876" height="2.819"/>
							<rect x="144.181" y="345.397" style="fill:#D4E7E1;" width="32.876" height="2.818"/>
							<rect x="144.181" y="351.973" style="fill:#D4E7E1;" width="32.876" height="2.818"/>
						</g>
						<rect x="189.269" y="338.822" style="fill:#0063D1;" width="20.665" height="15.969"/>
					</g>
					<g>
						<g>
							<rect x="144.181" y="365.124" style="fill:#D4E7E1;" width="33.347" height="2.817"/>
							<rect x="144.181" y="371.699" style="fill:#D4E7E1;" width="33.347" height="2.817"/>
							<rect x="144.181" y="378.274" style="fill:#D4E7E1;" width="33.347" height="2.818"/>
						</g>
						<rect x="189.269" y="365.124" style="fill:#5AD0FF;" width="20.665" height="15.969"/>
					</g>
					<g>
						<rect x="144.181" y="294.675" style="fill:#0063D1;" width="65.753" height="8.453"/>
						<g>
							<path style="fill:#FFFFFF;" d="M195.845,298.431c0,0.811-0.657,1.47-1.468,1.47c-0.811,0-1.468-0.658-1.468-1.47
								c0-0.809,0.657-1.467,1.468-1.467C195.187,296.964,195.845,297.622,195.845,298.431z"/>
							<path style="fill:#FFFFFF;" d="M201.011,298.431c0,0.811-0.658,1.47-1.469,1.47c-0.811,0-1.468-0.658-1.468-1.47
								c0-0.809,0.657-1.467,1.468-1.467C200.353,296.964,201.011,297.622,201.011,298.431z"/>
							<path style="fill:#FFFFFF;" d="M206.177,298.431c0,0.811-0.657,1.47-1.468,1.47c-0.811,0-1.468-0.658-1.468-1.47
								c0-0.809,0.657-1.467,1.468-1.467C205.52,296.964,206.177,297.622,206.177,298.431z"/>
						</g>
					</g>
				</g>
			</g>
			<g>
				<g>
					<g>
						<path style="fill:#0063D1;" d="M58.377,161.067c1.491-0.837,3.038-0.317,4.217,0.08c1.245,0.417,1.795,0.547,2.239,0.127
							c0.388-0.357,0.989-0.341,1.347,0.047c0.363,0.384,0.343,0.989-0.043,1.349c-1.32,1.236-2.888,0.709-4.152,0.285
							c-1.369-0.458-2.251-0.702-3.096,0.093c-0.387,0.359-0.992,0.341-1.351-0.044c-0.359-0.385-0.338-0.989,0.045-1.353
							C57.84,161.407,58.109,161.215,58.377,161.067z"/>
						<path style="fill:#0063D1;" d="M66.483,153.482c1.488-0.837,3.04-0.315,4.216,0.08c1.246,0.417,1.795,0.546,2.241,0.127
							c0.384-0.36,0.987-0.338,1.35,0.048c0.36,0.381,0.34,0.987-0.044,1.345c-1.322,1.239-2.893,0.711-4.153,0.289
							c-1.411-0.47-2.253-0.704-3.099,0.088c-0.383,0.362-0.988,0.342-1.354-0.043c-0.358-0.386-0.332-0.986,0.051-1.351
							C65.952,153.825,66.217,153.627,66.483,153.482z"/>
						<path style="fill:#0063D1;" d="M65.877,153.929c0.375-0.208,0.857-0.143,1.161,0.181c0.361,0.387,0.342,0.988-0.045,1.349
							c-0.845,0.794-0.664,1.69-0.294,3.089c0.337,1.287,0.758,2.885-0.563,4.122c-0.382,0.357-0.985,0.343-1.345-0.044
							c-0.362-0.386-0.342-0.992,0.041-1.352c0.447-0.413,0.354-0.974,0.022-2.242c-0.375-1.414-0.881-3.354,0.837-4.968
							C65.745,154.011,65.809,153.968,65.877,153.929z"/>
						<path style="fill:#0063D1;" d="M74.449,147.178"/>
						<path style="fill:#0063D1;" d="M73.982,146.346c0.377-0.209,0.859-0.148,1.163,0.177c0.36,0.389,0.341,0.995-0.043,1.353
							c-0.845,0.793-0.665,1.688-0.297,3.087c0.341,1.284,0.759,2.883-0.558,4.119c-0.389,0.361-0.991,0.343-1.352-0.044
							c-0.359-0.38-0.338-0.984,0.047-1.349c0.442-0.413,0.351-0.971,0.02-2.239c-0.375-1.418-0.887-3.359,0.836-4.969
							C73.856,146.427,73.918,146.384,73.982,146.346z"/>
					</g>
					<g>
						<path style="fill:#0063D1;" d="M42.164,176.237c1.491-0.831,3.039-0.315,4.217,0.08c1.242,0.418,1.792,0.548,2.237,0.13
							c0.385-0.36,0.992-0.341,1.351,0.043c0.364,0.387,0.34,0.991-0.043,1.353c-1.322,1.235-2.889,0.71-4.151,0.286
							c-1.368-0.458-2.256-0.703-3.102,0.088c-0.384,0.363-0.985,0.34-1.347-0.045c-0.358-0.385-0.34-0.988,0.044-1.351
							C41.629,176.577,41.896,176.385,42.164,176.237z"/>
						<path style="fill:#0063D1;" d="M50.271,168.648c1.493-0.83,3.036-0.312,4.215,0.084c1.247,0.417,1.799,0.546,2.243,0.13
							c0.382-0.359,0.989-0.34,1.347,0.043c0.361,0.389,0.339,0.991-0.044,1.351c-1.322,1.233-2.891,0.708-4.149,0.288
							c-1.414-0.474-2.252-0.706-3.102,0.089c-0.38,0.357-0.989,0.338-1.348-0.047c-0.361-0.382-0.339-0.989,0.042-1.35
							C49.739,168.993,50.007,168.801,50.271,168.648z"/>
						<path style="fill:#0063D1;" d="M49.663,169.101c0.377-0.209,0.856-0.145,1.165,0.18c0.362,0.389,0.341,0.99-0.046,1.352
							c-0.843,0.792-0.673,1.645-0.293,3.085c0.337,1.285,0.759,2.886-0.562,4.125c-0.386,0.359-0.987,0.338-1.35-0.046
							c-0.36-0.385-0.342-0.992,0.042-1.35c0.449-0.415,0.357-0.975,0.022-2.246c-0.372-1.414-0.88-3.354,0.835-4.965
							C49.535,169.183,49.598,169.137,49.663,169.101z"/>
						<path style="fill:#0063D1;" d="M58.233,162.347"/>
						<path style="fill:#0063D1;" d="M57.768,161.517c0.375-0.21,0.859-0.147,1.164,0.178c0.362,0.387,0.342,0.992-0.043,1.353
							c-0.849,0.792-0.673,1.644-0.298,3.084c0.342,1.286,0.763,2.89-0.558,4.124c-0.382,0.362-0.991,0.339-1.349-0.044
							c-0.36-0.387-0.342-0.988,0.045-1.349c0.444-0.417,0.351-0.973,0.02-2.243c-0.377-1.417-0.887-3.359,0.834-4.968
							C57.642,161.596,57.705,161.551,57.768,161.517z"/>
					</g>
				</g>
				<path style="fill:#FFFFFF;" d="M46.24,276.41c-5.644-2.943-7.836-9.929-4.896-15.563c2.943-5.65,9.932-7.844,15.569-4.9
					c5.646,2.941,7.841,9.926,4.895,15.569C58.865,277.159,51.881,279.354,46.24,276.41z M54.856,259.897
					c-3.463-1.807-7.757-0.463-9.566,3.007c-1.807,3.462-0.455,7.753,3.007,9.56c3.469,1.807,7.756,0.46,9.563-3.002
					C59.669,265.991,58.322,261.706,54.856,259.897z"/>
				<g>
					<path style="fill:#FFFFFF;" d="M431.821,148.55c-7.442,0-13.477,6.035-13.477,13.479c0,7.445,6.034,13.479,13.477,13.479
						c7.445,0,13.478-6.033,13.478-13.479C445.299,154.585,439.267,148.55,431.821,148.55z M431.821,171.075
						c-4.994,0-9.046-4.049-9.046-9.047c0-4.996,4.052-9.047,9.046-9.047c4.998,0,9.048,4.051,9.048,9.047
						C440.869,167.026,436.819,171.075,431.821,171.075z"/>
				</g>
				<g>
					<path style="fill:#FFFFFF;" d="M276.186,340.085c0.099,0.139,0.173,0.304,0.216,0.487c0.131,0.658-0.299,1.298-0.953,1.432
						l-8.844,1.779c-0.319,0.066-0.651-0.005-0.917-0.184c-0.273-0.187-0.456-0.468-0.515-0.792l-1.58-8.702
						c-0.118-0.661,0.321-1.292,0.982-1.412c0.656-0.12,1.289,0.318,1.402,0.978l1.363,7.485l7.624-1.532
						C275.441,339.522,275.91,339.718,276.186,340.085z"/>
					<path style="fill:#FFFFFF;" d="M265.761,333.162c0.109,0.138,0.182,0.306,0.219,0.484c0.136,0.654-0.29,1.297-0.95,1.43
						l-8.836,1.783c-0.32,0.065-0.656-0.004-0.929-0.179c-0.266-0.191-0.451-0.478-0.51-0.797l-1.577-8.703
						c-0.12-0.658,0.32-1.29,0.976-1.41c0.664-0.12,1.297,0.318,1.411,0.976l1.36,7.487l7.622-1.534
						C265.024,332.603,265.492,332.797,265.761,333.162z"/>
					<path style="fill:#FFFFFF;" d="M255.347,326.236c0.104,0.147,0.179,0.306,0.216,0.49c0.134,0.655-0.293,1.297-0.953,1.429
						l-8.833,1.781c-0.322,0.066-0.658-0.002-0.926-0.184c-0.27-0.186-0.458-0.467-0.511-0.79l-1.582-8.701
						c-0.117-0.663,0.321-1.295,0.98-1.415c0.659-0.116,1.292,0.32,1.414,0.982l1.356,7.483l7.626-1.537
						C254.609,325.681,255.073,325.873,255.347,326.236z"/>
					<path style="fill:#FFFFFF;" d="M244.929,319.316c0.105,0.141,0.177,0.308,0.214,0.489c0.132,0.654-0.295,1.295-0.95,1.424
						l-8.837,1.787c-0.321,0.061-0.651-0.006-0.924-0.19c-0.269-0.181-0.457-0.465-0.509-0.789l-1.581-8.703
						c-0.122-0.658,0.316-1.291,0.979-1.41c0.659-0.12,1.291,0.317,1.413,0.978l1.356,7.483l7.623-1.536
						C244.192,318.755,244.653,318.951,244.929,319.316z"/>
				</g>
				<path style="fill:#0063D1;" d="M258.883,389.666l-3.81-2.972l3.076-3.943c1.085-1.392,0.611-3.581-0.78-4.667l0,0
					c-1.392-1.086-3.634-1.014-4.719,0.377l-3.077,3.944l-3.809-2.972c-1.393-1.086-3.579-0.612-4.667,0.783l0,0
					c-1.085,1.391-1.015,3.63,0.378,4.716l3.81,2.972l-2.866,3.674c-1.086,1.393-0.611,3.584,0.781,4.67l0,0
					c1.393,1.086,3.631,1.012,4.718-0.381l2.866-3.674l3.81,2.972c1.393,1.087,3.581,0.609,4.666-0.782l0,0
					C260.349,392.988,260.276,390.753,258.883,389.666z"/>
				<path style="fill:#5AD0FF;" d="M414.379,242.378c-0.313,0-0.618-0.127-0.84-0.365c-0.307-0.324-0.397-0.799-0.234-1.214
					l5.59-14.216c0.127-0.323,0.391-0.57,0.721-0.677c0.329-0.107,0.69-0.06,0.98,0.127l12.883,8.286
					c0.377,0.241,0.579,0.679,0.523,1.123c-0.058,0.442-0.368,0.812-0.795,0.951l-18.467,5.93
					C414.618,242.358,414.501,242.378,414.379,242.378z M420.53,228.741l-4.18,10.632l13.815-4.434L420.53,228.741z"/>
				<polygon style="fill:#FFFFFF;" points="456.22,284.358 431.822,267.309 432.824,297.059 				"/>
				<path style="fill:#5AD0FF;" d="M240.819,420.637c-4.995,0-9.045,4.05-9.045,9.044c0,4.997,4.05,9.045,9.045,9.045
					c4.995,0,9.046-4.048,9.046-9.045C249.864,424.686,245.814,420.637,240.819,420.637z M240.819,436.26
					c-3.634,0-6.579-2.945-6.579-6.579c0-3.633,2.945-6.578,6.579-6.578c3.634,0,6.577,2.945,6.577,6.578
					C247.396,433.315,244.453,436.26,240.819,436.26z"/>
			</g>
		</g>
	</g>
</g>
</svg>
